<svg width="15" height="17" viewBox="0 0 15 17" fill="none" xmlns="http://www.w3.org/2000/svg">
<path d="M12.8446 5.05827L13.9133 4.04085L12.8617 3.03935L11.7183 4.12776C10.6739 3.42313 9.45504 2.98886 8.18125 2.86748V1.41604H9.66875V0H5.20625V1.41604H6.69375V2.86748C5.41996 2.98886 4.20113 3.42313 3.15666 4.12776L2.01333 3.03935L0.961672 4.04085L2.03044 5.05827C1.03281 6.0638 0.366405 7.32548 0.113524 8.68749C-0.139357 10.0495 0.0323601 11.4522 0.60747 12.7224C1.18258 13.9925 2.13589 15.0745 3.34968 15.8347C4.56347 16.5949 5.98458 17 7.4375 17C8.89042 17 10.3115 16.5949 11.5253 15.8347C12.7391 15.0745 13.6924 13.9925 14.2675 12.7224C14.8426 11.4522 15.0144 10.0495 14.7615 8.68749C14.5086 7.32548 13.8422 6.0638 12.8446 5.05827V5.05827ZM7.4375 15.5764C6.2607 15.5764 5.11033 15.2442 4.13186 14.6219C3.15339 13.9995 2.39076 13.1148 1.94042 12.0799C1.49008 11.0449 1.37225 9.906 1.60183 8.80726C1.83141 7.70852 2.39809 6.69926 3.23022 5.90711C4.06234 5.11497 5.12253 4.57551 6.27671 4.35695C7.4309 4.1384 8.62724 4.25057 9.71446 4.67928C10.8017 5.10798 11.7309 5.83397 12.3847 6.76544C13.0385 7.69691 13.3875 8.79201 13.3875 9.91228C13.3857 11.414 12.7583 12.8537 11.6428 13.9156C10.5274 14.9775 9.01499 15.5748 7.4375 15.5764V15.5764Z" fill="#00FF00"/>
<path d="M7.43711 5.66431V9.91243H2.97461C2.97461 10.7526 3.23633 11.574 3.72668 12.2726C4.21702 12.9712 4.91397 13.5156 5.72938 13.8372C6.5448 14.1587 7.44206 14.2428 8.3077 14.0789C9.17334 13.915 9.96848 13.5104 10.5926 12.9163C11.2167 12.3222 11.6417 11.5652 11.8139 10.7412C11.986 9.91714 11.8977 9.06298 11.5599 8.28674C11.2222 7.5105 10.6502 6.84703 9.91634 6.38024C9.18248 5.91345 8.3197 5.66431 7.43711 5.66431V5.66431Z" fill="#00FF00"/>
</svg>
