<svg width="30" height="30" viewBox="0 0 30 30" fill="none" xmlns="http://www.w3.org/2000/svg">
<g filter="url(#filter0_b)">
<path fill-rule="evenodd" clip-rule="evenodd" d="M21.3126 6.68605C19.3346 3.62351 17.3597 1.04265 16.5417 0C15.7237 1.04265 13.7477 3.62318 11.7698 6.68605C10.5824 8.51135 9.40665 10.5193 8.48029 12.4517C9.8771 14.5955 11.3162 17.2678 11.3162 19.181C11.3162 21.6502 10.1619 23.8161 8.43239 25.0467C8.77795 25.6203 9.16383 26.1591 9.59067 26.6504C11.3971 28.7271 13.8571 30 16.5407 30C19.2226 30 21.6826 28.7271 23.489 26.6504C25.2945 24.5743 26.4277 21.7004 26.4267 18.5474C26.4495 15.5169 23.8997 10.6657 21.3126 6.68605ZM19.7053 27.7353C19.7053 27.7353 22.9083 24.5324 24.6823 19.9009C24.6823 19.9009 25.2354 24.7861 19.7053 27.7353Z" fill="url(#paint0_linear)"/>
<path fill-rule="evenodd" clip-rule="evenodd" d="M5.15313 9.58076C5.15313 9.58076 0 15.9335 0 19.1807C0 22.4282 2.32912 25.1105 5.15313 25.1105C7.97714 25.1105 10.3066 22.4282 10.3066 19.1807C10.3066 15.9335 5.15313 9.58076 5.15313 9.58076ZM6.33916 24.0659C6.33916 24.0659 8.25267 22.1524 9.3125 19.3855C9.3125 19.3855 9.64287 22.304 6.33916 24.0659Z" fill="url(#paint1_linear)"/>
<path d="M25.9533 12.9638L25.842 12.72C24.8432 10.5108 23.5 8.22394 22.1606 6.13797C21.9783 5.85484 21.7956 5.57766 21.6135 5.30379C22.825 3.14151 24.4385 1.13781 24.5472 1.00467L24.9394 0.521004L25.3319 1.00467C25.5073 1.21941 29.6032 6.30085 29.6032 9.06671C29.6032 11.3958 28.2665 13.3744 26.4184 14.0781C26.3451 13.8885 26.2675 13.6979 26.1872 13.5062C28.8886 11.9436 28.6121 9.48826 28.6121 9.48826C27.8559 11.4626 26.6078 12.9433 26.1578 13.4382C26.0911 13.2803 26.0233 13.1223 25.9533 12.9638Z" fill="url(#paint2_linear)"/>
<path d="M21.1802 6.77152L21.1805 6.77192C22.4715 8.75778 23.7514 10.9585 24.7052 13.0383C25.6612 15.1232 26.2803 17.0672 26.2692 18.5462V18.5474C26.2701 21.663 25.1503 24.5 23.3702 26.547C21.5891 28.5945 19.1705 29.8425 16.5407 29.8425C13.9092 29.8425 11.4907 28.5946 9.70959 26.547C9.31988 26.0985 8.96428 25.609 8.64246 25.0885C10.3491 23.8137 11.4737 21.6421 11.4737 19.181C11.4737 18.1904 11.1028 17.0192 10.5655 15.8376C10.039 14.6798 9.34578 13.4969 8.66067 12.4401C9.5773 10.5401 10.7334 8.56823 11.9019 6.77196L11.9021 6.77152C13.7827 3.8594 15.6619 1.38361 16.5417 0.255705C17.4214 1.38361 19.2996 3.85969 21.1802 6.77152ZM19.594 27.624L19.7794 27.8743C22.5822 26.3796 23.8514 24.3882 24.4164 22.7639C24.6983 21.9534 24.8042 21.2364 24.8395 20.7211C24.8572 20.4633 24.8572 20.2557 24.8528 20.1117C24.8505 20.0396 24.8472 19.9835 24.8443 19.9448C24.8437 19.9367 24.8431 19.9293 24.8426 19.9227C24.8418 19.9137 24.8412 19.9062 24.8406 19.9002L24.8394 19.8882L24.8391 19.8848L24.839 19.8838L24.8389 19.8834C24.8389 19.8833 24.8389 19.8832 24.6823 19.9009L24.8389 19.8832L24.5352 19.8445C23.6548 22.1429 22.419 24.0889 21.402 25.4611C20.8937 26.1469 20.4407 26.6886 20.1152 27.0584C19.9525 27.2433 19.8216 27.3852 19.7317 27.4806C19.6868 27.5283 19.6521 27.5644 19.6287 27.5884L19.6024 27.6154L19.5958 27.622L19.5943 27.6235L19.594 27.6239L19.5939 27.6239L19.5939 27.6239L19.594 27.624ZM6.22776 23.9545L6.22773 23.9545L6.22791 23.9547L6.41329 24.2049C8.10287 23.3038 8.87119 22.101 9.21352 21.1167C9.38412 20.6263 9.44825 20.1922 9.46967 19.8798C9.48039 19.7236 9.48044 19.5974 9.47771 19.5095C9.47635 19.4655 9.47429 19.431 9.47252 19.4071C9.47163 19.3951 9.47082 19.3858 9.4702 19.3792L9.46943 19.3714L9.46918 19.3691L9.4691 19.3683L9.46907 19.368C9.46905 19.3679 9.46904 19.3678 9.3125 19.3855L9.46904 19.3678L9.16538 19.3292C8.64212 20.6952 7.90717 21.8527 7.30182 22.6695C6.99938 23.0775 6.72992 23.3998 6.53645 23.6196C6.43972 23.7295 6.36204 23.8137 6.30879 23.8702C6.28216 23.8985 6.26165 23.9198 6.24792 23.9339L6.23249 23.9497L6.22876 23.9535L6.22791 23.9543L6.22776 23.9545ZM26.0974 12.9001L26.0966 12.8983L25.9855 12.6551C25.9854 12.6549 25.9854 12.6547 25.9853 12.6546C24.9821 10.4355 23.6343 8.1416 22.2932 6.05285L22.2931 6.05266C22.128 5.79638 21.9628 5.5451 21.7982 5.29702C22.9971 3.17916 24.5635 1.23381 24.6693 1.1043L24.6696 1.10389L24.9394 0.771093L25.2095 1.10394L25.2099 1.10434C25.2956 1.20931 26.3592 2.52801 27.4004 4.16362C27.9211 4.9815 28.4342 5.87548 28.8166 6.73444C29.2005 7.59683 29.4457 8.40865 29.4457 9.06671C29.4457 11.2761 28.2127 13.1482 26.5071 13.8726C26.4674 13.7726 26.4267 13.6724 26.3852 13.572C27.6897 12.78 28.2909 11.7785 28.5622 10.9609C28.7015 10.5413 28.7533 10.1719 28.7703 9.90638C28.7788 9.77355 28.7786 9.66644 28.7762 9.59169C28.775 9.55431 28.7732 9.52498 28.7717 9.50454L28.7697 9.48063L28.769 9.47385L28.7688 9.47179L28.7687 9.4711L28.7687 9.47084C28.7687 9.47073 28.7687 9.47063 28.6121 9.48826L28.7687 9.47063L28.465 9.43191C27.797 11.176 26.7383 12.532 26.2051 13.1474C26.1697 13.0651 26.1339 12.9827 26.0974 12.9001ZM26.5646 14.0193C26.53 14.034 26.4951 14.0483 26.4601 14.062L26.4184 14.0781L26.5646 14.0193ZM5.05577 9.95716C5.09247 9.91026 5.12505 9.86889 5.15313 9.83337C5.18122 9.86889 5.21379 9.91027 5.2505 9.95717C5.39079 10.1364 5.59138 10.3963 5.83217 10.7184C6.31386 11.3628 6.95584 12.2553 7.59753 13.2485C8.23955 14.2422 8.87938 15.3337 9.35818 16.3765C9.83888 17.4234 10.149 18.4039 10.149 19.1807C10.149 22.3627 7.87007 24.953 5.15313 24.953C2.4362 24.953 0.157544 22.3628 0.157544 19.1807C0.157544 18.4039 0.467689 17.4234 0.948351 16.3765C1.42712 15.3337 2.06691 14.2422 2.70889 13.2485C3.35054 12.2553 3.99248 11.3628 4.47414 10.7184C4.71491 10.3963 4.91549 10.1364 5.05577 9.95716Z" stroke="url(#paint3_linear)" stroke-width="0.315089"/>
</g>
<defs>
<filter id="filter0_b" x="-1.00189" y="-1.00189" width="31.607" height="32.0038" filterUnits="userSpaceOnUse" color-interpolation-filters="sRGB">
<feFlood flood-opacity="0" result="BackgroundImageFix"/>
<feGaussianBlur in="BackgroundImage" stdDeviation="0.500943"/>
<feComposite in2="SourceAlpha" operator="in" result="effect1_backgroundBlur"/>
<feBlend mode="normal" in="SourceGraphic" in2="effect1_backgroundBlur" result="shape"/>
</filter>
<linearGradient id="paint0_linear" x1="14.8016" y1="0" x2="14.8016" y2="30.9" gradientUnits="userSpaceOnUse">
<stop stop-color="#F4FFF7"/>
<stop offset="1" stop-color="white" stop-opacity="0"/>
</linearGradient>
<linearGradient id="paint1_linear" x1="14.8016" y1="0" x2="14.8016" y2="30.9" gradientUnits="userSpaceOnUse">
<stop stop-color="#F4FFF7"/>
<stop offset="1" stop-color="white" stop-opacity="0"/>
</linearGradient>
<linearGradient id="paint2_linear" x1="14.8016" y1="0" x2="14.8016" y2="30.9" gradientUnits="userSpaceOnUse">
<stop stop-color="#F4FFF7"/>
<stop offset="1" stop-color="white" stop-opacity="0"/>
</linearGradient>
<linearGradient id="paint3_linear" x1="14.8016" y1="0" x2="14.8016" y2="30" gradientUnits="userSpaceOnUse">
<stop stop-color="white" stop-opacity="0"/>
<stop offset="1" stop-color="white"/>
</linearGradient>
</defs>
</svg>
